<?xml version="1.0" encoding="UTF-8"?>
<svg xmlns="http://www.w3.org/2000/svg" width="155.398" height="157.332" viewBox="0 0 155.398 157.332">
  <path id="Logo" d="M1314.122,1525.546l7.836,5.885-.292-6.045,1.663-.079.473,9.783-7.835-5.885.293,6.046-1.665.08Zm-7.107,9.282-.572-1.571-5.468-.844-.049-.007-1.016,1.326-1.879-.292,6.963-8.914,3.955,10.6Zm-5.057-3.779,3.77.583.141.023-1.4-3.882Zm29.318,1.38a4.813,4.813,0,0,1-2.38-3.069,5.1,5.1,0,0,1,3.972-6.193,6.779,6.779,0,0,1,1.7-.217,5.985,5.985,0,0,1,3.068.8l-.922,1.44a4.443,4.443,0,0,0-3.444-.466,3.729,3.729,0,0,0-2.253,1.556,3.459,3.459,0,0,0,1.224,4.735,3.722,3.722,0,0,0,2.726.266,3.393,3.393,0,0,0,2.727-3.128l0-.112-3.262.846-.389-1.5,5.085-1.318.184.71a4.671,4.671,0,0,1-.6,3.765,5.617,5.617,0,0,1-3.34,2.3,6.207,6.207,0,0,1-1.563.2A5.328,5.328,0,0,1,1331.276,1532.428Zm-45.125-2.845,3.193-9.042,1.679.592-2.666,7.551,6.016,2.129-.526,1.49Zm55.979-9.208,7.561-3.684.692,1.424-5.883,2.866-.076.037,1.029,2.115,4.617-2.25.691,1.425-4.541,2.21-.076.037,1.091,2.244,6.165-3,.691,1.424-7.767,3.784Zm-66.626,4.08c-2.422-1.435-3.144-3.929-1.8-6.207l2.734-4.621,1.534.909-2.734,4.622a2.742,2.742,0,0,0-.339,2.163,2.977,2.977,0,0,0,1.423,1.748,2.712,2.712,0,0,0,3.947-.928l2.736-4.622,1.533.909-2.733,4.623a4.174,4.174,0,0,1-3.643,2.192A5.236,5.236,0,0,1,1275.5,1524.455Zm78.363-10.371,4.479-3.432a3.08,3.08,0,0,1,4.575.4,2.887,2.887,0,0,1-.548,4.167l-.162.146h.218a4.162,4.162,0,0,1,.706.066,3.252,3.252,0,0,0,2.9-.581l.3-.227.96,1.255-.411.316a4.891,4.891,0,0,1-4.417.87,3.147,3.147,0,0,0-2.7.314l-.715.549,2.057,2.69-1.415,1.085Zm5.44-2.174-3.064,2.345,1.865,2.439,3.063-2.347a1.548,1.548,0,0,0-.854-2.8A1.664,1.664,0,0,0,1359.307,1511.911Zm-96.86,2.866a5.624,5.624,0,0,1-1.883-3.659,4.9,4.9,0,0,1,4.807-5.269h.037a5.919,5.919,0,0,1,5.658,5.206,4.895,4.895,0,0,1-4.845,5.269A5.612,5.612,0,0,1,1262.447,1514.776Zm3.109-7.225a3.29,3.29,0,0,0-2.389,1.116,3.38,3.38,0,0,0,.366,4.921,3.7,3.7,0,0,0,2.489,1.027,3.421,3.421,0,0,0,3.332-3.592,3.956,3.956,0,0,0-3.775-3.472Zm99.15-2.658,1.229-1.292,6.943,6.611-1.229,1.292Zm-109.366.637a3.251,3.251,0,0,1-2.465-1.535l-3.57-4.946,7.765-5.62,3.387,4.691a3.108,3.108,0,0,1,.666,2.468,2.414,2.414,0,0,1-.945,1.438,2.1,2.1,0,0,1-2.111.264l-.152-.06.04.159a2.312,2.312,0,0,1-.889,2.579,2.774,2.774,0,0,1-1.648.563Zm-3.744-5.957,2.519,3.49a1.391,1.391,0,0,0,1.118.7h.059a1.289,1.289,0,0,0,.743-.271,1.309,1.309,0,0,0,.489-.658,1.424,1.424,0,0,0-.319-1.287l-2.519-3.489Zm3.349-2.421,2.291,3.174a1.328,1.328,0,0,0,.97.63c.032,0,.063,0,.093,0a1.133,1.133,0,0,0,.677-.233,1.149,1.149,0,0,0,.458-.651,1.273,1.273,0,0,0-.3-1.127l-2.291-3.174Zm114.74,2.227,4.814-6.9,1.3.905-3.794,5.436,1.927,1.346,2.938-4.212,1.3.9-2.939,4.214,2.042,1.428,3.925-5.624,1.3.9-4.946,7.087Zm-85.756-2.663v-32.2h-9.171v-17.431h9.171v-30.47h39.347a30.823,30.823,0,0,1,14.556,3.192,21.79,21.79,0,0,1,9.105,8.649A24.811,24.811,0,0,1,1349,1447.35a19.346,19.346,0,0,1-2.46,5.589q11.032,6.785,11.033,18.761,0,11.576-8.109,18.3t-22.332,6.72Zm19.275-4.791h24.99q10.768,0,17.347-5.655a18.326,18.326,0,0,0,6.58-14.57,16.053,16.053,0,0,0-2.392-8.383,16.278,16.278,0,0,0-6.381-6.121,19.221,19.221,0,0,1-7.311,4.923,11.23,11.23,0,0,1,3.988,3.792,10.415,10.415,0,0,1,1.6,5.789,10.7,10.7,0,0,1-4.055,8.915q-4.055,3.194-11.365,3.194h-23Zm-23.528-32.067h9.3v32.067h9.305v-32.067h25.123q9.7,0,15.42-5.323t5.716-13.972a18.048,18.048,0,0,0-5.716-13.838q-5.717-5.32-15.42-5.322h-34.429v30.47h-9.3Zm23.528,19.16h23.661a11.364,11.364,0,0,0,7.045-1.93,6.393,6.393,0,0,0,2.525-5.388q0-7.185-9.571-7.185h-23.661Zm83.668,5.034a76.207,76.207,0,0,0,5.06-27.37q0-3.868-.381-7.64l1.255-.186q.387,3.862.391,7.826a77.454,77.454,0,0,1-5.13,27.786ZM1237.8,1456.683a78.141,78.141,0,0,1,.391-7.827l1.254.187q-.375,3.769-.38,7.64a76.172,76.172,0,0,0,5.06,27.368l-1.2.418A77.448,77.448,0,0,1,1237.8,1456.683Zm144.234,25.682a71.078,71.078,0,0,0,4.792-25.682c0-2.322-.121-4.617-.339-6.883l1.255-.187c.226,2.327.348,4.685.348,7.07a72.325,72.325,0,0,1-4.862,26.1Zm-139.128-25.682c0-2.387.124-4.744.349-7.07l1.255.187c-.218,2.265-.338,4.56-.338,6.883a71.083,71.083,0,0,0,4.792,25.682l-1.2.417A72.321,72.321,0,0,1,1242.906,1456.683Zm55.381-4.676v-22.754h23.4q6.645,0,10.169,3.128a10.58,10.58,0,0,1,3.523,8.316,10.423,10.423,0,0,1-3.523,8.183q-3.525,3.129-10.169,3.127Zm4.918-4.791h19.142q7.842,0,7.843-6.52a6.167,6.167,0,0,0-1.994-4.923,8.7,8.7,0,0,0-5.849-1.73H1303.2Zm75.143-17.463,9.513-3.4,2.976,8.356-1.576.563-2.344-6.577-2.32.829,1.816,5.1-1.577.562-1.815-5.1-2.464.879,2.425,6.806-1.576.563Zm-138.219,5.138,1.9-5.427a4.057,4.057,0,0,1,2-2.538,3.493,3.493,0,0,1,4.5,1.578,4.108,4.108,0,0,1-.032,3.225l-1.274,3.646,3.064,1.073-.622,1.781Zm4.605-6.277a2.2,2.2,0,0,0-1.158,1.487l-1.244,3.561,3.243,1.136.079.028,1.246-3.56a2.21,2.21,0,0,0,.019-1.889,1.784,1.784,0,0,0-.96-.757,1.954,1.954,0,0,0-.64-.113A1.623,1.623,0,0,0,1244.733,1428.616Zm3.01-11.831,11.9.261-1.05,1.784-1.755-.052-2.95,5.014-.026.042.9,1.511-1.02,1.733Zm5.193,5.506,2.1-3.578-4.318-.138Zm120.736-1.322,7.164-4.268.072-.043-1.945-3.271,1.437-.858,4.853,8.163-1.437.857-1.945-3.271-7.235,4.309ZM1254.7,1407.057l4.011-4.385a3.743,3.743,0,0,1,2.414-1.3,3.12,3.12,0,0,1,2.407.871,3.04,3.04,0,0,1,.2,4.423l-.134.173.214-.038a4.258,4.258,0,0,1,.743-.064,3.418,3.418,0,0,0,2.9-1.138l.271-.293,1.234,1.13-.371.406a5.155,5.155,0,0,1-4.42,1.719,3.305,3.305,0,0,0-2.736.823l-.638.7,2.629,2.409-1.273,1.391Zm5.246-3.255-2.739,2.993,2.373,2.177,2.739-3a1.571,1.571,0,0,0-.059-2.32,1.592,1.592,0,0,0-1.079-.442A1.678,1.678,0,0,0,1259.945,1403.8Zm106.27,7.192,6.27-5.5.063-.056-2.506-2.864,1.258-1.1,6.256,7.146-1.259,1.1-2.452-2.8-.056-.064-6.334,5.556Zm-12.234-10.848,6.178-7.992,7.006,5.425-1.024,1.324-5.449-4.22-.068-.052-1.507,1.95,4.274,3.31-1.025,1.325-4.207-3.259-.067-.052-1.6,2.07,5.707,4.42-1.024,1.324Zm-87.314-4.766,1.486-1.159,6.2,7.969-1.485,1.158Zm10.622,2.553.378-1.736a5.282,5.282,0,0,0,4.05-.562,3.652,3.652,0,0,0,1.849-1.9,1.177,1.177,0,0,0-.085-.917c-.351-.635-1.2-.691-2.264-.155l-1.973.991c-1.916.962-3.52.7-4.289-.688a2.792,2.792,0,0,1-.045-2.631,5.535,5.535,0,0,1,2.413-2.367,6.963,6.963,0,0,1,4.6-.818l-.376,1.735a5.044,5.044,0,0,0-3.473.6,3.994,3.994,0,0,0-1.4,1.193,1.151,1.151,0,0,0-.148,1.23c.323.586,1.154.614,2.222.076l1.972-.989c1.944-.977,3.519-.707,4.318.74a3.024,3.024,0,0,1,.042,2.859,6.059,6.059,0,0,1-2.634,2.573,7.243,7.243,0,0,1-3.537.966A6.79,6.79,0,0,1,1277.29,1397.934Zm67.666-2.619c-2.669-1.287-3.653-3.84-2.446-6.352l2.452-5.1,1.7.818-2.453,5.1a2.883,2.883,0,0,0-.157,2.295,3.13,3.13,0,0,0,1.646,1.7,2.853,2.853,0,0,0,4.05-1.328l2.452-5.1,1.7.818-2.451,5.1a4.38,4.38,0,0,1-4.024,2.647A5.691,5.691,0,0,1,1344.956,1395.315Zm-13.769-4.892a5.366,5.366,0,0,1-4.32-6.428,5.058,5.058,0,0,1,2.435-3.285,5.6,5.6,0,0,1,2.785-.712,6.541,6.541,0,0,1,1.516.181,6.669,6.669,0,0,1,4.155,2.894l-1.57.892a4.668,4.668,0,0,0-2.976-2.128,3.505,3.505,0,0,0-4.482,2.6,3.466,3.466,0,0,0,.445,2.746,3.912,3.912,0,0,0,2.4,1.583,3.562,3.562,0,0,0,4.065-1.569l.057-.1-3.451-.815.377-1.6,5.388,1.273-.178.757a5.1,5.1,0,0,1-5.144,3.891A6.538,6.538,0,0,1,1331.186,1390.423Zm-34.376-10.016,5.993-1.1a3.274,3.274,0,0,1,2.649.484,2.559,2.559,0,0,1,.939,1.556,2.211,2.211,0,0,1-.706,2.13l-.121.111.162.033a2.441,2.441,0,0,1,2.048,2.02,2.871,2.871,0,0,1-.248,1.9,3.43,3.43,0,0,1-2.578,1.652l-6.319,1.158Zm7.326,4.511-4.369.8-.083.015.472,2.581.015.083,4.45-.814a1.441,1.441,0,0,0,1.185-.773,1.336,1.336,0,0,0,.092-.852,1.383,1.383,0,0,0-.4-.762,1.274,1.274,0,0,0-.907-.322A2.525,2.525,0,0,0,1304.136,1384.917Zm-1.142-3.971-3.965.726-.083.015.443,2.426,4.05-.741a1.413,1.413,0,0,0,1.039-.635,1.173,1.173,0,0,0,.129-.832,1.188,1.188,0,0,0-.411-.731,1.123,1.123,0,0,0-.786-.269A2.337,2.337,0,0,0,1302.994,1380.947Zm17.692,7.531-.815-1.559-5.818-.116-.049,0-.877,1.525-2.011-.042,6.028-10.285,5.612,10.519Zm-5.792-3.245,4.008.082.142,0-2-3.839Z" transform="translate(-1237.801 -1377.999)" fill="#042867"></path>
</svg>
