<svg width="433" height="280" viewBox="0 0 433 280" fill="none" xmlns="http://www.w3.org/2000/svg">
<path d="M426.192 245.912C420.197 257.777 408.785 266.39 392.956 271.676C377.115 276.966 356.988 278.87 333.879 277.382C287.669 274.407 229.941 257.895 171.71 228.473C113.479 199.051 65.9386 162.375 36.1293 126.941C21.2222 109.221 10.8141 91.8881 5.67477 75.9984C0.539093 60.1198 0.702421 45.8234 6.69727 33.9586C12.6922 22.0938 24.1037 13.4816 39.9328 8.19578C55.7731 2.90625 75.9008 1.00209 99.0095 2.48985C145.219 5.46488 202.947 21.9767 261.179 51.3988C319.41 80.8208 366.95 117.497 396.759 152.931C411.666 170.651 422.074 187.984 427.214 203.874C432.349 219.752 432.186 234.048 426.192 245.912Z" stroke="#BB86FC" stroke-width="4"/>
</svg>
