<svg width="57" height="57" viewBox="0 0 57 57" fill="none" xmlns="http://www.w3.org/2000/svg">
<path d="M28.5001 0L30.6298 14.4901L36.9242 1.27329L34.7002 15.7492L44.5997 4.98002L38.2198 18.1554L50.8447 10.7908L40.8756 21.4951L55.1044 18.1894L42.4318 25.4714L57 26.5182L42.75 29.7309L56.3634 35.0375L41.8022 33.8955L53.2509 42.9901L39.6725 37.5948L47.9393 49.6694L36.5499 40.5001L40.9004 54.4819L32.7121 42.3534L32.7597 57L28.5001 42.9901L24.2404 57L24.288 42.3534L16.0997 54.4819L20.4502 40.5001L9.06074 49.6694L17.3277 37.5948L3.74908 42.9901L15.1979 33.8955L0.636635 35.0375L14.25 29.7309L0 26.5182L14.5684 25.4714L1.8957 18.1894L16.1246 21.4951L6.15534 10.7908L18.7803 18.1554L12.4004 4.98002L22.2999 15.7492L20.0759 1.27329L26.3703 14.4901L28.5001 0Z" fill="#BB86FC"/>
</svg>
